<?xml version="1.0" encoding="UTF-8"?>
<svg id="Layer_2" data-name="Layer 2" xmlns="http://www.w3.org/2000/svg" width="128" height="128" viewBox="0 0 128 128">
  <defs>
    <style>
      .cls-1 {
        fill: #7a8a96;
      }

      .cls-2 {
        fill: none;
      }
    </style>
  </defs>
  <g id="Body">
    <path id="Body-2" data-name="Body" class="cls-1" d="M63.87,35.04c-16.1-.04-29.16,12.99-29.16,29.08,0,13.09,8.65,24.15,20.53,27.8,1.81,.56,3.05,2.24,3.05,4.14v10.65c0,2.26-1.74,4.14-3.99,4.32-12.55,1.04-15.96,4.59-17.62,6.97-.2,.41-.45,.78-.77,1.09h0c-.1,.13-.19,.2-.29,.25-1.17,.97-2.87,1.26-4.39,.44-12.29-6.68-20.29-17.31-23.14-28.21,0,0-.9-5.13,2.44-5l1.2-.08c4.24,0,3.83-15.34,3.83-12.78v-19.18c0,2.56,.4-12.78-3.83-12.78l-1.2-.08c-3.34,.13-2.44-5-2.44-5,2.85-10.9,10.85-21.53,23.14-28.21,1.51-.82,3.22-.53,4.39,.44,.09,.05,.19,.12,.29,.25h0c.31,.31,.57,.68,.77,1.09,1.97,2.81,5.85,7.22,25.05,7.22h4.3c19.2,0,23.08-4.4,25.05-7.22,.2-.41,.45-.78,.77-1.09h0c.1-.13,.19-.2,.29-.25,1.17-.97,2.87-1.26,4.39-.44,12.29,6.68,20.29,17.31,23.14,28.21,0,0,.9,5.13-2.44,5l-1.2,.08c-4.24,0-3.83,15.34-3.83,12.78v19.18c0-2.56-.4,12.78,3.83,12.78l1.2,.08c3.34-.13,2.44,5,2.44,5-2.85,10.9-10.85,21.53-23.14,28.21-1.51,.82-3.22,.53-4.39-.44-.09-.05-.19-.12-.29-.25h0c-.31-.31-.57-.68-.77-1.09-1.66-2.38-5.08-5.93-17.62-6.97-2.25-.19-3.99-2.06-3.99-4.32v-10.65c0-1.9,1.23-3.58,3.05-4.14,11.89-3.65,20.53-14.71,20.53-27.8,0-16.09-13.07-29.13-29.16-29.08"/>
    <rect id="Canvas" class="cls-2" width="128" height="128"/>
  </g>
</svg>